<?xml version="1.0" standalone="no"?>
<!DOCTYPE svg PUBLIC "-//W3C//DTD SVG 20010904//EN"
 "http://www.w3.org/TR/2001/REC-SVG-20010904/DTD/svg10.dtd">
<svg version="1.0" xmlns="http://www.w3.org/2000/svg"
 width="260.000000pt" height="260.000000pt" viewBox="0 0 260.000000 260.000000"
 preserveAspectRatio="xMidYMid meet">
<metadata>
Created by potrace 1.11, written by Peter Selinger 2001-2013
</metadata>
<g transform="translate(0.000000,260.000000) scale(0.100000,-0.100000)"
fill="#000000" stroke="none">
<path d="M0 1300 l0 -1300 1300 0 1300 0 0 1300 0 1300 -1300 0 -1300 0 0
-1300z m685 579 c45 -12 88 -49 104 -88 6 -14 19 -63 29 -109 l18 -83 52 66
c76 94 175 139 225 102 33 -24 45 -83 40 -201 -6 -128 -15 -128 96 7 95 115
166 168 230 175 44 4 50 2 62 -19 25 -47 15 -100 -43 -225 -72 -155 -116 -293
-124 -392 -6 -73 -5 -81 15 -101 13 -13 34 -21 55 -21 37 0 56 -14 31 -23 -24
-10 -114 19 -142 44 -81 75 -71 178 44 438 60 134 70 189 40 218 -16 16 -21
13 -95 -62 -90 -92 -155 -185 -236 -340 -96 -182 -140 -235 -186 -220 -19 6
-21 12 -15 43 3 21 24 75 45 122 101 223 137 355 127 468 -4 36 -9 67 -11 70
-12 11 -70 -24 -101 -62 -43 -53 -155 -217 -155 -228 0 -20 -194 -403 -215
-424 -24 -24 -50 -30 -72 -16 -13 8 -1 50 47 157 12 28 35 86 50 130 15 44 40
107 55 140 41 90 65 198 65 287 0 71 -2 81 -26 105 -22 22 -32 25 -79 21 -126
-11 -303 -146 -370 -282 -98 -199 -53 -368 94 -354 60 6 104 36 142 97 64 100
58 173 -14 179 -44 4 -49 18 -9 27 92 20 139 -72 89 -172 -41 -80 -129 -145
-215 -159 -42 -7 -117 20 -155 54 -68 61 -81 185 -30 292 42 90 81 140 160
205 77 64 185 119 258 133 69 13 75 13 120 1z m1636 1 c130 -36 189 -165 123
-265 -35 -53 -73 -83 -147 -114 -56 -23 -74 -26 -197 -26 -100 0 -146 4 -177
16 -42 16 -42 16 -68 -11 -31 -33 -51 -117 -41 -182 8 -52 37 -101 79 -132 42
-31 134 -28 212 8 74 33 91 49 121 108 26 52 66 88 98 88 63 0 64 -88 1 -220
-25 -52 -45 -107 -45 -122 0 -30 -5 -28 109 -47 96 -16 105 -34 11 -24 -144
15 -147 14 -279 -94 -123 -100 -266 -159 -372 -151 -159 12 -157 127 4 205 80
40 155 59 282 73 87 9 103 14 128 38 16 15 35 41 42 57 13 30 10 81 -6 90 -4
3 -31 -6 -58 -20 -63 -33 -143 -55 -201 -55 -126 1 -230 122 -230 268 0 25 7
84 17 132 15 81 15 90 0 129 -31 76 -19 158 32 221 28 35 36 19 12 -26 -20
-39 -24 -63 -22 -118 1 -27 3 -28 33 -22 18 3 53 27 82 55 69 64 121 96 208
126 79 27 184 33 249 15z"/>
<path d="M2205 1851 c-115 -20 -290 -176 -302 -270 -5 -40 -4 -41 33 -58 60
-27 221 -23 296 6 95 37 179 133 181 206 2 81 -96 135 -208 116z"/>
<path d="M2000 953 c-91 -14 -209 -63 -243 -101 -26 -29 -34 -97 -13 -105 38
-15 173 27 261 81 66 40 85 62 85 99 0 31 -2 33 -32 32 -18 -1 -44 -3 -58 -6z"/>
</g>
</svg>
